# AST/ASF file generated using VICON BodyLanguage
# -----------------------------------------------
:version 1.10
:name VICON
:units
  mass 1.0
  length 0.45
  angle deg
:documentation
   .ast/.asf automatically generated from VICON data using
   VICON BodyBuilder and BodyLanguage model FoxedUp or BRILLIANT.MOD
:root
   order TX TY TZ RX RY RZ
   axis XYZ
   position 0 0 0  
   orientation 0 0 0 
:bonedata
  begin
     id 1 
     name lhipjoint
     direction 0.576517 -0.752066 0.319413 
     length 2.45433 
     axis 0 0 0  XYZ
  end
  begin
     id 2 
     name lfemur
     direction 0.34202 -0.939693 0  
     length 7.54459  
     axis 0 0 20  XYZ
    dof rx ry rz
    limits (-160.0 20.0)
           (-70.0 70.0)
           (-60.0 70.0)
  end
  begin
     id 3 
     name ltibia
     direction 0.34202 -0.939693 0   
     length 7.73986   
     axis 0 0 20   XYZ
    dof rx
    limits (-10.0 170.0)
  end
  begin
     id 4 
     name lfoot
     direction 0.090693 -0.249177 0.964202   
     length 2.28437   
     axis -90 7.62852e-016 20   XYZ
    dof rx rz
    limits (-45.0 90.0)
           (-70.0 20.0)
  end
  begin
     id 5 
     name ltoes
     direction 1.5356e-011 -4.21928e-011 1   
     length 1.14243   
     axis -90 7.62852e-016 20   XYZ
    dof rx
    limits (-90.0 20.0)
  end
  begin
     id 6 
     name rhipjoint
     direction -0.573937 -0.753736 0.320122   
     length 2.44889  
     axis 0 0 0  XYZ 
  end
  begin
     id 7 
     name rfemur
     direction -0.34202 -0.939693 0   
     length 7.50166   
     axis 0 0 -20   XYZ
    dof rx ry rz
    limits (-160.0 20.0)
           (-70.0 70.0)
           (-70.0 60.0)
  end
  begin
     id 8 
     name rtibia
     direction -0.34202 -0.939693 0   
     length 7.54266   
     axis 0 0 -20   XYZ
    dof rx
    limits (-10.0 170.0)
 end
 begin
     id 9 
     name rfoot
     direction -0.114017 -0.31326 0.942798   
     length 2.34212  
     axis -90 -7.62852e-016 -20   XYZ
    dof rx rz
    limits (-45.0 90.0)
           (-20.0 70.0)
  end
  begin
     id 10 
     name rtoes
     direction -1.53557e-011 -4.21867e-011 1   
     length 1.16246   
     axis -90 -7.62852e-016 -20   XYZ
    dof rx
    limits (-90.0 20.0)
  end
  begin
     id 11 
     name lowerback
     direction -0.0228371 0.999155 -0.034167   
     length 2.0537   
     axis 0 0 0   XYZ
    dof rx ry rz
    limits (-20.0 45.0)
           (-30.0 30.0)
           (-30.0 30.0)
  end
  begin
     id 12 
     name upperback
     direction 0.0198981 0.999794 0.00389455   
     length 2.05302   
     axis 0 0 0   XYZ
    dof rx ry rz
    limits (-20.0 45.0)
           (-30.0 30.0)
           (-30.0 30.0)
  end
  begin
     id 13 
     name thorax
     direction 0.0304566 0.99935 0.0192987   
     length 2.05315   
     axis 0 0 0   XYZ
    dof rx ry rz
    limits (-20.0 45.0)
           (-30.0 30.0)
           (-30.0 30.0)
  end
  begin
     id 14 
     name lowerneck
     direction -0.0196762 0.99417 0.106017   
     length 1.82056   
     axis 0 0 0   XYZ
    dof rx ry rz
    limits (-20.0 45.0)
           (-30.0 30.0)
           (-30.0 30.0)
  end
  begin
     id 15 
     name upperneck
     direction 0.00517787 0.9802 -0.197944   
     length 1.83835   
     axis 0 0 0   XYZ
    dof rx ry rz
    limits (-20.0 45.0)
           (-30.0 30.0)
           (-30.0 30.0)
  end
  begin
     id 16
     name head
     direction 0.00211419 0.996945 -0.078081  
     length 1.85629  
     axis 0 0 0   XYZ
    dof rx ry rz
    limits (-20.0 45.0)
           (-30.0 30.0)
           (-30.0 30.0)
  end
  begin
     id 17 
     name lclavicle
     direction 0.930001 0.365811 -0.0357824  
     length 3.81961  
     axis 0 0 0   XYZ
    dof ry rz
    limits (-20.0 10.0)
           (0.0 20.0)
  end
  begin
     id 18 
     name lhumerus
     direction 1 -4.48968e-011 -3.06644e-027   
     length 5.14507   
     axis 180 -30 -90   XYZ
    dof rx ry rz
    limits (-60.0 90.0)
           (-90.0 90.0)
           (-90.0 90.0)
  end
  begin
     id 19
     name lradius
     direction 1 -4.48965e-011 9.06925e-028   
     length 3.50646   
     axis 180 -30 -90   XYZ
    dof rx
    limits (-10.0 170.0)
  end
  begin
     id 20
     name lwrist
     direction 1 -4.48957e-011 1.03922e-027   
     length 1.75323   
     axis -2.56395e-016 90 90   XYZ
    dof ry
    limits (-180.0 0.0)
 end
  begin
     id 21 
     name lhand
     direction 1 -4.48967e-011 2.08017e-027   
     length 0.629969   
     axis -1.32723e-015 90 90   XYZ
    dof rx rz
    limits (-90.0 90.0)
           (-45.0 45.0)
  end
  begin
     id 22 
     name lfingers
     direction 1 -4.49089e-011 4.20095e-027   
     length 0.507897   
     axis -2.6545e-015 90 90   XYZ
    dof rx
    limits (0.0 90.0)
  end
  begin
     id 23
     name lthumb
     direction 0.707107 -6.35001e-011 0.707107   
     length 0.729241   
     axis -90 45 5.05613e-014   XYZ
    dof rx rz
    limits (-45.0 45.0)
           (-45.0 45.0)
  end
  begin
     id 24 
     name rclavicle
     direction -0.881882 0.464123 -0.0829113   
     length 3.47515  
     axis 0 0 0   XYZ 
    dof ry rz
    limits (-10.0 20.0)
           (-20.0 0.0)
  end
  begin
     id 25 
     name rhumerus
     direction -1 -4.48961e-011 -1.55672e-027  
     length 5.232   
     axis 180 30 90   XYZ
    dof rx ry rz
    limits (-90.0 60.0)
           (-90.0 90.0)
           (-90.0 90.0)
  end
  begin
     id 26 
     name rradius
     direction -1 -4.48963e-011 6.18178e-029   
     length 3.65641   
     axis 180 30 90   XYZ
    dof rx
    limits (-10.0 170.0)
  end
  begin
     id 27 
     name rwrist
     direction -1 -4.48982e-011 1.04136e-027   
     length 1.8282   
     axis -2.56395e-016 -90 -90   XYZ
    dof ry
    limits (-180.0 0.0)
  end
  begin
     id 28
     name rhand
     direction -1 -4.48929e-011 2.07378e-027   
     length 0.656807   
     axis -1.32723e-015 -90 -90   XYZ
    dof rx rz
    limits (-90.0 90.0)
           (-45.0 45.0)
  end
  begin
     id 29
     name rfingers
     direction -1 -4.489e-011 4.13816e-027   
     length 0.529535   
     axis -2.6545e-015 -90 -90   XYZ
    dof rx
    limits (0.0 90.0)
  end
  begin
     id 30
     name rthumb
     direction -0.707107 -6.34843e-011 0.707107   
     length 0.760309   
     axis -90 -45 -5.05613e-014   XYZ
    dof rx rz
    limits (-45.0 45.0)
           (-45.0 45.0)
  end
:hierarchy
  begin
    root lhipjoint rhipjoint lowerback
    lhipjoint lfemur
    lfemur ltibia
    ltibia lfoot
    lfoot ltoes
    rhipjoint rfemur
    rfemur rtibia
    rtibia rfoot
    rfoot rtoes
    lowerback upperback
    upperback thorax
    thorax lowerneck lclavicle rclavicle
    lowerneck upperneck
    upperneck head
    lclavicle lhumerus
    lhumerus lradius
    lradius lwrist
    lwrist lhand lthumb
    lhand lfingers
    rclavicle rhumerus
    rhumerus rradius
    rradius rwrist
    rwrist rhand rthumb
    rhand rfingers
  end

#!OML:ASF H:\ManfredETheater\Project 1\Capture day 1\Session 1\subject.ASF
:FULLY-SPECIFIED
:DEGREES
1
root 0.723538 17.1586 32.7592 -174.949 -6.29834 177.962
lowerback 4.05724 -0.540027 -3.08995
upperback -2.71701 -0.876589 1.73979
thorax -5.02372 -0.31196 3.61848
lowerneck -19.4013 -0.178242 -2.01984
upperneck 26.6528 -0.165318 -1.18804
head 11.9871 -0.799681 -0.205228
rclavicle -2.90723e-015 2.22639e-014
rhumerus -35.363 -12.3403 -76.7204
rradius 30.5394
rwrist 2.15749
rhand -20.06 -12.5357
rfingers 7.12502
rthumb 6.28192 -42.4226
lclavicle -2.90723e-015 2.22639e-014
lhumerus -35.8627 7.58962 83.7904
lradius 32.0767
lwrist -15.2645
lhand -8.64489 9.2994
lfingers 7.12502
lthumb 17.2882 38.5504
rfemur -31.3153 -3.17079 15.4048
rtibia 35.6
rfoot -5.63821 -5.74437
rtoes 12.5158
lfemur -11.3407 -5.45454 -25.4643
ltibia 32.2893
lfoot -22.5013 -0.193235
ltoes 8.63391
2
root 0.720858 17.1582 32.7595 -174.948 -6.27513 177.95
lowerback 4.04645 -0.534548 -3.10557
upperback -2.72076 -0.869994 1.7449
thorax -5.02186 -0.308137 3.63199
lowerneck -19.3348 -0.134768 -2.00779
upperneck 26.5822 -0.110961 -1.16587
head 11.9458 -0.768454 -0.189065
rclavicle -7.31776e-015 7.15625e-015
rhumerus -35.3687 -12.3211 -76.7255
rradius 30.5496
rwrist 2.15329
rhand -20.048 -12.5798
rfingers 7.12502
rthumb 6.29346 -42.4663
lclavicle -7.31776e-015 7.15625e-015
lhumerus -35.8734 7.52528 83.7778
lradius 32.0858
lwrist -15.2163
lhand -8.62707 9.32679
lfingers 7.12502
lthumb 17.3054 38.5763
rfemur -31.3261 -3.1635 15.3868
rtibia 35.6133
rfoot -5.63381 -5.74278
rtoes 12.4138
lfemur -11.3384 -5.41403 -25.4885
ltibia 32.2839
lfoot -22.4917 -0.207619
ltoes 8.50676
3
root 0.717877 17.1577 32.7597 -174.962 -6.26515 177.932
lowerback 4.05259 -0.535239 -3.11433
upperback -2.71869 -0.871521 1.74332
thorax -5.02298 -0.30855 3.63549
lowerneck -19.416 -0.17859 -2.02779
upperneck 26.6437 -0.162107 -1.18313
head 11.9865 -0.797583 -0.201383
rclavicle -1.37658e-014 -7.95139e-016
rhumerus -35.3469 -12.3247 -76.731
rradius 30.5273
rwrist 2.16765
rhand -20.0371 -12.5227
rfingers 7.12502
rthumb 6.30399 -42.4089
lclavicle -1.37658e-014 -7.95139e-016
lhumerus -35.8602 7.50373 83.7428
lradius 32.0574
lwrist -15.2235
lhand -8.75026 9.2173
lfingers 7.12502
lthumb 17.1868 38.4772
rfemur -31.3109 -3.17436 15.3568
rtibia 35.6176
rfoot -5.6227 -5.72314
rtoes 12.4085
lfemur -11.3168 -5.4037 -25.5236
ltibia 32.2775
lfoot -22.4865 -0.196975
ltoes 8.51022
4
root 0.715532 17.1574 32.7596 -174.984 -6.24618 177.949
lowerback 4.04327 -0.529416 -3.10778
upperback -2.70982 -0.862493 1.75648
thorax -5.00906 -0.304517 3.6445
lowerneck -19.3397 -0.133673 -2.01405
upperneck 26.5694 -0.106824 -1.16083
head 11.9418 -0.76575 -0.185251
rclavicle -2.03382e-014 1.59028e-015
rhumerus -35.3416 -12.3141 -76.734
rradius 30.5291
rwrist 2.16873
rhand -20.0322 -12.4687
rfingers 7.12502
rthumb 6.30875 -42.3547
lclavicle -2.03382e-014 1.59028e-015
lhumerus -35.883 7.45611 83.7243
lradius 32.0725
lwrist -15.2133
lhand -8.80891 9.11733
lfingers 7.12502
lthumb 17.1304 38.3822
rfemur -31.2937 -3.16122 15.3659
rtibia 35.6217
rfoot -5.6215 -5.71328
rtoes 12.376
lfemur -11.2897 -5.3979 -25.5189
ltibia 32.2699
lfoot -22.4692 -0.158848
ltoes 8.24916
5
root 0.713169 17.1573 32.7585 -175.004 -6.25289 177.929
lowerback 4.06832 -0.537065 -3.14011
upperback -2.72652 -0.875557 1.7637
thorax -5.03934 -0.308976 3.67214
lowerneck -19.3239 -0.133012 -2.00861
upperneck 26.5773 -0.104465 -1.18196
head 11.9417 -0.768094 -0.193913
rclavicle 1.71328e-014 1.27222e-014
rhumerus -35.3632 -12.2691 -76.7327
rradius 30.5293
rwrist 2.17031
rhand -19.9831 -12.4429
rfingers 7.12502
rthumb 6.35608 -42.3275
lclavicle 1.71328e-014 1.27222e-014
lhumerus -35.906 7.45666 83.6869
lradius 32.0324
lwrist -15.2588
lhand -8.69783 9.23311
lfingers 7.12502
lthumb 17.2373 38.4886
rfemur -31.2658 -3.16022 15.3321
rtibia 35.6266
rfoot -5.63669 -5.72134
rtoes 12.3681
lfemur -11.2541 -5.37615 -25.5466
ltibia 32.2569
lfoot -22.5011 -0.232082
ltoes 8.62194
6
root 0.710772 17.1572 32.758 -175.02 -6.25023 177.924
lowerback 4.0848 -0.539255 -3.1558
upperback -2.73804 -0.879946 1.77267
thorax -5.06019 -0.309956 3.69126
lowerneck -19.3016 -0.12457 -2.00516
upperneck 26.5711 -0.0933753 -1.18784
head 11.9347 -0.763863 -0.194867
rclavicle 1.25731e-014 -1.66979e-014
rhumerus -35.3778 -12.2363 -76.7342
rradius 30.5319
rwrist 2.16171
rhand -19.964 -12.4292
rfingers 7.12502
rthumb 6.3746 -42.3133
lclavicle 1.25731e-014 -1.66979e-014
lhumerus -35.9324 7.42633 83.6618
lradius 32.0171
lwrist -15.2688
lhand -8.70072 9.23252
lfingers 7.12502
lthumb 17.2345 38.4883
rfemur -31.2447 -3.1582 15.3161
rtibia 35.6274
rfoot -5.63892 -5.72152
rtoes 12.3431
lfemur -11.2261 -5.3616 -25.5618
ltibia 32.2453
lfoot -22.5067 -0.255585
ltoes 8.7016
7
root 0.708463 17.1572 32.7573 -175.038 -6.25166 177.92
lowerback 4.10871 -0.542779 -3.17184
upperback -2.75469 -0.886456 1.78295
thorax -5.09047 -0.311715 3.71238
lowerneck -19.2809 -0.117678 -2.00174
upperneck 26.5735 -0.0847007 -1.19614
head 11.9315 -0.761546 -0.197268
rclavicle -2.39784e-015 -3.18055e-015
rhumerus -35.3997 -12.1968 -76.7355
rradius 30.5375
rwrist 2.14671
rhand -19.9508 -12.4261
rfingers 7.12502
rthumb 6.38732 -42.3098
lclavicle -2.39784e-015 -3.18055e-015
lhumerus -35.9659 7.39633 83.6374
lradius 32
lwrist -15.2835
lhand -8.7002 9.23513
lfingers 7.12502
lthumb 17.235 38.4908
rfemur -31.2232 -3.15691 15.3022
rtibia 35.6307
rfoot -5.6436 -5.72392
rtoes 12.3167
lfemur -11.1954 -5.34724 -25.5737
ltibia 32.2292
lfoot -22.5109 -0.284796
ltoes 8.79315
8
root 0.706256 17.1572 32.7566 -175.053 -6.2571 177.918
lowerback 4.13407 -0.547746 -3.18899
upperback -2.77431 -0.895086 1.79425
thorax -5.12448 -0.314373 3.73544
lowerneck -19.257 -0.109805 -1.99722
upperneck 26.5772 -0.0752461 -1.20519
head 11.9281 -0.759031 -0.200038
rclavicle 1.53437e-014 4.77083e-015
rhumerus -35.425 -12.1487 -76.7393
rradius 30.5521
rwrist 2.12884
rhand -19.9345 -12.4685
rfingers 7.12502
rthumb 6.403 -42.3517
lclavicle 1.53437e-014 4.77083e-015
lhumerus -36.0038 7.36326 83.6157
lradius 31.9841
lwrist -15.2958
lhand -8.69796 9.24551
lfingers 7.12502
lthumb 17.2372 38.501
rfemur -31.2014 -3.15568 15.2899
rtibia 35.6317
rfoot -5.64793 -5.73026
rtoes 12.2877
lfemur -11.1674 -5.33226 -25.5825
ltibia 32.2156
lfoot -22.5152 -0.319547
ltoes 8.88189
